<?xml version="1.0" encoding="utf-8"?>
<svg id="master-artboard" viewBox="0 0 2340 1560" version="1.1" xmlns="http://www.w3.org/2000/svg" x="0px" y="0px" width="2340px" height="1560px" enable-background="new 0 0 2340 1560"><rect id="ee-background" x="0" y="0" width="2340" height="1560" style="fill: white; fill-opacity: 0; pointer-events: none;"/>
<metadata><!--?xpacket begin="﻿" id="W5M0MpCehiHzreSzNTczkc9d"?-->

                                                                                                    
                                                                                                    
                                                                                                    
                                                                                                    
                                                                                                    
                                                                                                    
                                                                                                    
                                                                                                    
                                                                                                    
                                                                                                    
                                                                                                    
                                                                                                    
                                                                                                    
                                                                                                    
                                                                                                    
                                                                                                    
                                                                                                    
                                                                                                    
                                                                                                    
                                                                                                    
                           
<!--?xpacket end="w"?-->
	</metadata>


<g transform="matrix(1, 0, 0, 1, 0, 0)">
		<path d="M 1144.394043 576.435974 H 1165.125044 V 597.178974 H 1144.394043 V 576.435974 Z" fill="#19213B"/>
		<path d="M 1177.463989 576.435974 H 1198.230989 V 597.178974 H 1177.463989 V 576.435974 Z" fill="#19213B"/>
		<path d="M 1144.394043 609.52301 H 1165.125044 V 630.26001 H 1144.394043 V 609.52301 Z" fill="#19213B"/>
		<path d="M 1177.463989 609.52301 H 1198.230989 V 630.26001 H 1177.463989 V 609.52301 Z" fill="#19213B"/>
	</g><path d="M 952.651001 696.054016 H 975.791 V 719.217016 H 952.651001 V 696.054016 Z" fill="#19213B" transform="matrix(1, 0, 0, 1, 0, 0)"/><path d="M 989.572021 696.054016 H 1012.752022 V 719.217016 H 989.572021 V 696.054016 Z" fill="#19213B" transform="matrix(1, 0, 0, 1, 0, 0)"/><path d="M 952.651001 732.991028 H 975.791 V 756.148027 H 952.651001 V 732.991028 Z" fill="#19213B" transform="matrix(1, 0, 0, 1, 0, 0)"/><path d="M 989.572021 732.991028 H 1012.752022 V 756.148027 H 989.572021 V 732.991028 Z" fill="#19213B" transform="matrix(1, 0, 0, 1, 0, 0)"/><path d="M 1340.647949 669.320984 H 1357.098949 V 685.770985 H 1340.647949 V 669.320984 Z" fill="#19213B" transform="matrix(1, 0, 0, 1, 0, 0)"/><path d="M 1366.865967 669.320984 H 1383.339968 V 685.770985 H 1366.865967 V 669.320984 Z" fill="#19213B" transform="matrix(1, 0, 0, 1, 0, 0)"/><path d="M 1340.647949 695.549988 H 1357.098949 V 711.995987 H 1340.647949 V 695.549988 Z" fill="#19213B" transform="matrix(1, 0, 0, 1, 0, 0)"/><path d="M 1366.865967 695.549988 H 1383.339968 V 711.995987 H 1366.865967 V 695.549988 Z" fill="#19213B" transform="matrix(1, 0, 0, 1, 0, 0)"/><path fill="#19213B" d="M902.879,699.128l80.016-80.028l158.874,158.88l-37.518,37.518l98.45-39.021L1360.059,619.1l68.019,68.035&#10;&#9;&#9;l42.57-16.875l-110.589-110.564l-44.228,44.212l-147.99-147.994L1023.48,600.264l-40.585-40.569l-108.89,108.877L902.879,699.128z&#10;&#9;&#9; M1167.841,515.325l118.293,118.287l-114.649,114.646L1053.197,629.98L1167.841,515.325z" transform="matrix(1, 0, 0, 1, 0, 0)"/><path d="M 1033.0069580078125 863.5170288085938 L 860.0180053710938 680.5360107421875 L 827.5570068359375 713.3380126953125 L 1026.56494140625 897.3800048828125 L 1512.4449462890625 673.4669799804688 Z" fill="#94C123" transform="matrix(1, 0, 0, 1, 0, 0)"/>
</svg>